# xmcd
#
# Track frame offsets: 
#        150
#        16164
#        30284
#        50610
#        70404
#        80752
#        95695
#        101561
#        117027
#        130829
#        140606
#        150646
#        178387
#        193510
#        204195
#        216900
#        227406
#        239294
#        252194
#
# Disc length: 3586 seconds
#
# Revision: 0
# Processed by: cddbd v1.5PL3 Copyright (c) Steve Scherf et al.
# Submitted via: ExactAudioCopy v0.95a3
#
DISCID=030e0013
DTITLE=Zvonko Bogdan - Uspomena na vreme koje se sigurno ponoviti nece
DTITLE=CD 2
DYEAR=2003
DGENRE=National Folk
TTITLE0=Prosle su mnoge ljubavi
TTITLE1=Sta li radi moja ljubav
TTITLE2=Docicu ti ko u staroj pismi
TTITLE3=Zivot tece u laganom ritmu
TTITLE4=Spusta se noc na ravni Srem
TTITLE5=Kradem ti se
TTITLE6=Od danas te draga vise ljubit necu
TTITLE7=Ah moj doro
TTITLE8=Cekala me moja draga
TTITLE9=Leptiricu mali
TTITLE10=Kada moja mladost prodje
TTITLE11=Srdo moja - Vino piju - Malo ja, malo ti
TTITLE12=Ej, mati, mati, mati
TTITLE13=Sta ce selo kad ne bude mene
TTITLE14=Ciganski uranak
TTITLE15=Chicino kolo
TTITLE16=Gde da idem
TTITLE17=Crveno cvece
TTITLE18=Harem
EXTD=
EXTT0=
EXTT1=
EXTT2=
EXTT3=
EXTT4=
EXTT5=
EXTT6=
EXTT7=
EXTT8=
EXTT9=
EXTT10=
EXTT11=
EXTT12=
EXTT13=
EXTT14=
EXTT15=
EXTT16=
EXTT17=
EXTT18=
PLAYORDER=
